<svg width="281" height="120" viewBox="0 0 281 120" fill="none" xmlns="http://www.w3.org/2000/svg">
<g clip-path="url(#clip0_3327_2567)">
<mask id="mask0_3327_2567" style="mask-type:luminance" maskUnits="userSpaceOnUse" x="0" y="0" width="281" height="120">
<path d="M281 0H0V120H281V0Z" fill="white"/>
</mask>
<g mask="url(#mask0_3327_2567)">
<path d="M242.307 -2H170.025V61H242.307V-2Z" fill="#EC3E34"/>
<path d="M196.392 8.35349L223.539 55.6454C224.633 57.5767 227.467 57.5767 228.561 55.6454L241.587 32.9651C241.885 32.4204 241.885 31.7271 241.587 31.1823L225.229 2.70817C224.136 0.77688 225.528 -1.6001 227.715 -1.6001H279.772C280.319 -1.6001 280.667 -1.00585 280.418 -0.510645L211.094 119.95C155.24 119.95 42.3009 120.35 0 120.35L0.842422 -0.510447C0.544104 -1.00565 135.752 -0.410241 136.348 -0.410241L181.213 -0.410151C188.323 -0.360631 192.862 2.16345 196.392 8.35349Z" fill="white"/>
<path d="M25.9985 83.1797V91H24.6504L21.1431 85.3979V91H19.7949V83.1797H21.1431L24.6611 88.792V83.1797H25.9985ZM32.7715 86.4453V87.5142H28.6196V86.4453H32.7715ZM28.9526 83.1797V91H27.6045V83.1797H28.9526ZM33.8081 83.1797V91H32.4653V83.1797H33.8081ZM38.5562 84.2217L36.2197 91H34.8071L37.7505 83.1797H38.6528L38.5562 84.2217ZM40.5112 91L38.1694 84.2217L38.0674 83.1797H38.9751L41.9292 91H40.5112ZM40.3984 88.1V89.168H36.1445V88.1H40.3984ZM49.0083 83.1797V91H47.6602L44.1528 85.3979V91H42.8047V83.1797H44.1528L47.6709 88.792V83.1797H49.0083ZM55.7812 86.4453V87.5142H51.6294V86.4453H55.7812ZM51.9624 83.1797V91H50.6143V83.1797H51.9624ZM56.8179 83.1797V91H55.4751V83.1797H56.8179ZM63.6392 87.1436V88.175H60.7979V87.1436H63.6392ZM70.6001 83.1797V91H69.2627V83.1797H70.6001ZM73.0547 83.1797V84.2539H66.8296V83.1797H73.0547ZM75.5254 83.1797V91H74.1772V83.1797H75.5254ZM83.4048 83.1797V91H82.0566L78.5493 85.3979V91H77.2012V83.1797H78.5493L82.0674 88.792V83.1797H83.4048ZM92.3691 88.454H93.7119C93.6689 88.966 93.5257 89.423 93.2822 89.824C93.0387 90.221 92.6968 90.535 92.2563 90.764C91.8159 90.993 91.2806 91.107 90.6504 91.107C90.167 91.107 89.7319 91.021 89.3452 90.85C88.9585 90.674 88.6273 90.427 88.3516 90.108C88.0758 89.786 87.8646 89.398 87.7178 88.943C87.5745 88.488 87.5029 87.9797 87.5029 87.4175V86.7676C87.5029 86.2054 87.5763 85.6969 87.7231 85.2422C87.8735 84.7874 88.0884 84.3989 88.3677 84.0767C88.647 83.7508 88.9818 83.502 89.3721 83.3301C89.766 83.1582 90.2082 83.0723 90.6987 83.0723C91.3218 83.0723 91.8481 83.1868 92.2778 83.416C92.7075 83.6452 93.0405 83.9621 93.2769 84.3667C93.5168 84.7713 93.6636 85.235 93.7173 85.7578H92.3745C92.3387 85.4212 92.2599 85.133 92.1382 84.8931C92.02 84.6532 91.8446 84.4705 91.6118 84.3452C91.3791 84.2163 91.0747 84.1519 90.6987 84.1519C90.3908 84.1519 90.1222 84.2091 89.8931 84.3237C89.6639 84.4383 89.4723 84.6066 89.3184 84.8286C89.1644 85.0506 89.048 85.3245 88.9692 85.6504C88.894 85.9727 88.8564 86.3415 88.8564 86.7568V87.4175C88.8564 87.8114 88.8905 88.169 88.9585 88.492C89.0301 88.81 89.1375 89.084 89.2808 89.313C89.4276 89.543 89.6138 89.72 89.8394 89.845C90.0649 89.971 90.3353 90.033 90.6504 90.033C91.0335 90.033 91.3433 89.972 91.5796 89.851C91.8195 89.729 92.0003 89.552 92.1221 89.319C92.2474 89.083 92.3298 88.794 92.3691 88.454ZM97.9819 84.2217L95.6455 91H94.2329L97.1763 83.1797H98.0786L97.9819 84.2217ZM99.937 91L97.5952 84.2217L97.4932 83.1797H98.4009L101.355 91H99.937ZM99.8242 88.1V89.168H95.5703V88.1H99.8242ZM98.186 81.0796L99.6738 82.562V82.6211H98.6265L97.8047 81.7778L96.9829 82.6211H95.957V82.5513L97.4233 81.0796H98.186ZM97.1064 92.273C97.1064 92.087 97.1709 91.931 97.2998 91.806C97.4323 91.68 97.6131 91.618 97.8423 91.618C98.0715 91.618 98.2523 91.68 98.3848 91.806C98.5173 91.931 98.5835 92.087 98.5835 92.273C98.5835 92.456 98.5173 92.61 98.3848 92.735C98.2523 92.86 98.0715 92.923 97.8423 92.923C97.6131 92.923 97.4323 92.86 97.2998 92.735C97.1709 92.61 97.1064 92.456 97.1064 92.273ZM102.365 83.1797L104.18 86.9126L105.996 83.1797H107.489L104.857 88.121V91H103.498V88.121L100.866 83.1797H102.365ZM113.558 87.1436V88.175H110.717V87.1436H113.558ZM125.466 86.4453V87.5142H121.314V86.4453H125.466ZM121.647 83.1797V91H120.299V83.1797H121.647ZM126.502 83.1797V91H125.16V83.1797H126.502ZM131.25 84.2217L128.914 91H127.501L130.445 83.1797H131.347L131.25 84.2217ZM133.206 91L130.864 84.2217L130.762 83.1797H131.669L134.624 91H133.206ZM133.093 88.1V89.168H128.839V88.1H133.093ZM129.107 82.707L130.644 81.3857H131.487L133.028 82.707H131.927L131.062 81.9443L130.203 82.707H129.107ZM132.631 81.8745L133.458 80.4565H134.613L133.458 81.8745H132.631ZM138.469 88.083H136.434V87.0146H138.469C138.824 87.0146 139.11 86.9574 139.329 86.8428C139.547 86.7282 139.706 86.5706 139.807 86.3701C139.91 86.166 139.962 85.9333 139.962 85.6719C139.962 85.4248 139.91 85.1938 139.807 84.979C139.706 84.7606 139.547 84.5851 139.329 84.4526C139.11 84.3201 138.824 84.2539 138.469 84.2539H136.847V91H135.499V83.1797H138.469C139.074 83.1797 139.588 83.2871 140.011 83.502C140.437 83.7132 140.761 84.0068 140.983 84.3828C141.205 84.7552 141.316 85.1813 141.316 85.6611C141.316 86.166 141.205 86.5993 140.983 86.9609C140.761 87.3226 140.437 87.6001 140.011 87.7935C139.588 87.9868 139.074 88.083 138.469 88.083ZM147.536 91H145.865L145.876 89.931H147.536C148.019 89.931 148.424 89.826 148.75 89.614C149.079 89.403 149.326 89.1 149.491 88.707C149.659 88.313 149.743 87.8436 149.743 87.2993V86.875C149.743 86.4525 149.695 86.0783 149.598 85.7524C149.505 85.4266 149.365 85.1527 149.179 84.9307C148.997 84.7087 148.771 84.5404 148.502 84.4258C148.237 84.3112 147.931 84.2539 147.584 84.2539H145.833V83.1797H147.584C148.103 83.1797 148.578 83.2674 149.007 83.4429C149.437 83.6147 149.808 83.8636 150.119 84.1895C150.434 84.5153 150.676 84.9056 150.844 85.3604C151.013 85.8151 151.097 86.3236 151.097 86.8857V87.2993C151.097 87.8615 151.013 88.37 150.844 88.825C150.676 89.279 150.434 89.67 150.119 89.996C149.804 90.318 149.428 90.567 148.991 90.742C148.558 90.914 148.073 91 147.536 91ZM146.612 83.1797V91H145.264V83.1797H146.612ZM155.377 84.2217L153.041 91H151.628L154.572 83.1797H155.474L155.377 84.2217ZM157.333 91L154.991 84.2217L154.889 83.1797H155.796L158.75 91H157.333ZM157.22 88.1V89.168H152.966V88.1H157.22ZM155.587 81.5845L157.161 82.8413H156.14L155.2 82.0732L154.255 82.8413H153.24L154.813 81.5845H155.587ZM156.108 80.2363L156.591 80.3975C156.591 80.5371 156.557 80.6714 156.489 80.8003C156.425 80.9292 156.333 81.0348 156.215 81.1172C156.097 81.196 155.963 81.2354 155.812 81.2354C155.641 81.2354 155.497 81.2049 155.383 81.144C155.268 81.0832 155.159 81.0223 155.055 80.9614C154.951 80.9006 154.83 80.8701 154.69 80.8701C154.593 80.8701 154.509 80.9095 154.438 80.9883C154.369 81.0671 154.335 81.1584 154.335 81.2622L153.852 81.1333C153.852 80.9901 153.884 80.854 153.949 80.7251C154.017 80.5962 154.11 80.4906 154.228 80.4082C154.346 80.3223 154.48 80.2793 154.631 80.2793C154.774 80.2793 154.905 80.3097 155.023 80.3706C155.141 80.4315 155.259 80.4924 155.377 80.5532C155.496 80.6105 155.621 80.6392 155.753 80.6392C155.847 80.6392 155.929 80.598 156 80.5156C156.072 80.4333 156.108 80.3402 156.108 80.2363ZM165.83 83.1797V91H164.481L160.974 85.3979V91H159.626V83.1797H160.974L164.492 88.792V83.1797H165.83Z" fill="#C02125"/>
</g>
<g clip-path="url(#clip1_3327_2567)">
<path d="M32.1601 39.7567L39.7332 52.8067C40.0384 53.3396 40.829 53.3396 41.1341 52.8067L44.7681 46.5481C44.8514 46.3978 44.8514 46.2065 44.7681 46.0562L40.2048 38.1989C39.8997 37.6659 40.2881 37.01 40.8984 37.01H55.4205C55.5731 37.01 55.6702 37.174 55.6008 37.3106L36.4599 70.3251C35.9605 71.186 34.6845 71.186 34.1852 70.3251L15.0303 37.297C14.9471 37.1603 15.0442 36.9963 15.2107 36.9963H27.361C29.3444 37.01 31.1753 38.0485 32.1601 39.7567Z" fill="url(#paint0_linear_3327_2567)"/>
<path d="M93.5771 39.7567L101.15 52.8067C101.455 53.3396 102.246 53.3396 102.551 52.8067L106.185 46.5481C106.268 46.3978 106.268 46.2065 106.185 46.0562L101.622 38.1989C101.317 37.6659 101.705 37.01 102.315 37.01H116.837C116.99 37.01 117.087 37.174 117.018 37.3106L97.863 70.3251C97.3637 71.186 96.0876 71.186 95.5883 70.3251L76.4473 37.297C76.3641 37.1603 76.4612 36.9963 76.6276 36.9963H88.778C90.7614 37.01 92.5923 38.0485 93.5771 39.7567Z" fill="url(#paint1_linear_3327_2567)"/>
<path d="M81.4683 51.2215L75.3238 54.6788C75.8648 54.3781 75.8648 53.5992 75.3238 53.2986L55.7668 42.2847C54.9068 41.8064 53.825 41.9704 53.1592 42.681C56.3216 39.1964 60.9126 36.9963 66.0169 36.9963C73.6871 36.9963 80.2062 41.943 82.4254 48.7755V48.7892C82.7444 49.7184 82.3283 50.7296 81.4683 51.2215Z" fill="url(#paint2_linear_3327_2567)"/>
<path d="M62.0918 62.126L55.9889 65.5559C55.1705 66.0206 55.1012 67.1684 55.8641 67.715C51.5643 64.6267 48.7764 59.6254 48.7764 53.9817C48.7764 49.6363 50.4269 45.6871 53.1455 42.6808C53.8113 41.9566 54.8931 41.8063 55.7531 42.2846L62.0918 45.8511C61.5509 45.5505 60.8851 45.9331 60.8851 46.5344V61.4291C60.899 62.0441 61.5647 62.4267 62.0918 62.126Z" fill="url(#paint3_linear_3327_2567)"/>
<path d="M83.2576 53.982C83.2576 63.3561 75.5457 70.9675 66.0168 70.9675C62.2164 70.9675 58.7211 69.765 55.8638 67.7153C55.101 67.1687 55.1703 66.0208 55.9887 65.5562L81.4544 51.2217C82.3144 50.7434 82.7166 49.7322 82.4253 48.803C82.9802 50.4291 83.2576 52.1782 83.2576 53.982Z" fill="url(#paint4_linear_3327_2567)"/>
<path d="M60.8984 61.4291V46.5344C60.8984 45.9194 61.5642 45.5368 62.1051 45.8511L75.3374 53.2985C75.8783 53.5991 75.8783 54.378 75.3374 54.6787L62.1051 62.1261C61.5642 62.4267 60.8984 62.0441 60.8984 61.4291Z" fill="white"/>
<path d="M62.2026 47.0538L74.2142 53.8179C74.3529 53.8999 74.3529 54.0912 74.2142 54.1596L62.2026 60.9237C62.0639 61.0057 61.8975 60.91 61.8975 60.7461V47.2178C61.8975 47.0675 62.0639 46.9718 62.2026 47.0538Z" fill="#EF4135"/>
<path d="M168.451 77H120.923C120.079 77 119.388 76.3167 119.388 75.4832V28.5168C119.388 27.6832 120.079 27 120.923 27H168.465C169.308 27 170 27.6832 170 28.5168V75.4832C169.986 76.3167 169.308 77 168.451 77Z" fill="url(#paint5_linear_3327_2567)"/>
<path fill-rule="evenodd" clip-rule="evenodd" d="M136.196 36.8362L148.976 32.7378H153.51L146.914 62.246H143.416L149.177 36.4706L148.918 36.2294L136.196 39.9014V36.8362ZM136.196 40.3282V43.5188L144.441 41.128L139.494 62.246H142.993L148.699 36.7194L136.196 40.3282Z" fill="url(#paint6_linear_3327_2567)"/>
<path d="M135.599 67.1201V67.9673H134.368V71.6159H133.469V67.9673H132.252V67.1201H135.599V67.1201Z" fill="white"/>
<path d="M138.766 67.1201H139.652V71.6159H138.766V69.7574H137.079V71.6159H136.166V67.1201H137.065V68.9102H138.753V67.1201H138.766Z" fill="white"/>
<path d="M142.724 71.6979C142.06 71.6979 141.506 71.4793 141.05 71.0283C140.593 70.5774 140.372 70.0171 140.372 69.3612C140.372 68.7053 140.593 68.1587 141.05 67.7078C141.506 67.2568 142.073 67.0245 142.724 67.0245C142.959 67.0245 143.18 67.0518 143.401 67.1202H143.872C144.107 67.1202 144.148 67.0109 144.148 66.7785V66.6692H144.826V66.7785C144.826 67.2842 144.702 67.5438 144.328 67.6531C144.342 67.6668 144.37 67.6941 144.397 67.7214C144.854 68.1724 145.089 68.719 145.089 69.3749C145.089 70.0308 144.868 70.5774 144.397 71.042C143.927 71.4793 143.374 71.6979 142.724 71.6979ZM142.724 70.837C143.139 70.837 143.484 70.7004 143.775 70.4271C144.051 70.1538 144.204 69.7985 144.204 69.3612C144.204 68.9239 144.065 68.5823 143.775 68.2954C143.498 68.0221 143.139 67.8717 142.724 67.8717C142.309 67.8717 141.949 68.0084 141.672 68.2954C141.396 68.5687 141.244 68.9239 141.244 69.3612C141.244 69.7985 141.382 70.1401 141.672 70.4271C141.949 70.7004 142.295 70.837 142.724 70.837ZM142.627 66.6556L141.907 65.781H142.917L143.443 66.6556H142.627Z" fill="white"/>
<path d="M145.78 67.1201H146.679V71.6159H145.78V67.1201Z" fill="white"/>
<path d="M149.044 70.5912L149.819 70.1539C149.998 70.6049 150.344 70.8372 150.87 70.8372C151.368 70.8372 151.603 70.6322 151.603 70.3589C151.603 70.1949 151.534 70.0719 151.382 69.9899C151.243 69.8943 150.98 69.7986 150.621 69.703C150.206 69.58 149.957 69.4843 149.68 69.2794C149.404 69.0744 149.251 68.7601 149.251 68.3501C149.251 67.9402 149.39 67.6122 149.68 67.3799C149.971 67.134 150.33 67.011 150.745 67.011C151.478 67.011 152.059 67.3799 152.378 68.0222L151.617 68.4458C151.437 68.0632 151.146 67.8719 150.745 67.8719C150.372 67.8719 150.151 68.0632 150.151 68.3228C150.151 68.4595 150.206 68.5825 150.33 68.6644C150.455 68.7464 150.676 68.8421 151.022 68.9514L151.34 69.0607C151.409 69.0744 151.506 69.1154 151.631 69.17C151.755 69.211 151.852 69.2657 151.921 69.3067C152.059 69.3887 152.267 69.5527 152.35 69.703C152.447 69.8533 152.516 70.0856 152.516 70.3452C152.516 70.7688 152.364 71.0968 152.059 71.3291C151.755 71.5751 151.354 71.6981 150.87 71.6981C149.929 71.6981 149.307 71.2744 149.044 70.5912Z" fill="white"/>
<path d="M153.595 71.2743C153.263 70.9873 153.111 70.6184 153.111 70.1401V67.1201H153.997V70.0718C153.997 70.5364 154.259 70.837 154.84 70.837C155.421 70.837 155.684 70.5364 155.684 70.0718V67.1201H156.251C156.473 67.1201 156.5 67.0108 156.5 66.7785V66.6692H157.178V66.7785C157.178 67.3251 157.026 67.5984 156.583 67.6667V70.1401C156.583 70.6184 156.417 71.001 156.099 71.2743C155.781 71.5476 155.352 71.6979 154.84 71.6979C154.329 71.6979 153.914 71.5612 153.595 71.2743ZM154.329 72.5861C154.329 72.3128 154.564 72.0805 154.84 72.0805C155.131 72.0805 155.366 72.3128 155.366 72.5861C155.366 72.8594 155.131 73.078 154.84 73.078C154.564 73.078 154.329 72.8594 154.329 72.5861Z" fill="white"/>
</g>
</g>
<defs>
<linearGradient id="paint0_linear_3327_2567" x1="15.1602" y1="53.9869" x2="54.9891" y2="53.9869" gradientUnits="userSpaceOnUse">
<stop stop-color="#CE1628"/>
<stop offset="0.0957" stop-color="#D4212A"/>
<stop offset="0.3569" stop-color="#E23330"/>
<stop offset="0.6433" stop-color="#EB3D33"/>
<stop offset="1" stop-color="#EF4135"/>
</linearGradient>
<linearGradient id="paint1_linear_3327_2567" x1="76.4178" y1="53.9869" x2="116.845" y2="53.9869" gradientUnits="userSpaceOnUse">
<stop stop-color="#CE1628"/>
<stop offset="0.0957" stop-color="#D4212A"/>
<stop offset="0.3569" stop-color="#E23330"/>
<stop offset="0.6433" stop-color="#EB3D33"/>
<stop offset="1" stop-color="#EF4135"/>
</linearGradient>
<linearGradient id="paint2_linear_3327_2567" x1="57.0989" y1="37.0492" x2="79.0662" y2="50.1226" gradientUnits="userSpaceOnUse">
<stop stop-color="#09446D"/>
<stop offset="0.2" stop-color="#0A4E7E"/>
<stop offset="0.5349" stop-color="#0D5D98"/>
<stop offset="0.8135" stop-color="#0D66AB"/>
<stop offset="1" stop-color="#086BB5"/>
</linearGradient>
<linearGradient id="paint3_linear_3327_2567" x1="55.4427" y1="67.6274" x2="55.4427" y2="42.0426" gradientUnits="userSpaceOnUse">
<stop stop-color="#09446D"/>
<stop offset="0.2" stop-color="#0A4E7E"/>
<stop offset="0.5349" stop-color="#0D5D98"/>
<stop offset="0.8135" stop-color="#0D66AB"/>
<stop offset="1" stop-color="#086BB5"/>
</linearGradient>
<linearGradient id="paint4_linear_3327_2567" x1="84.0389" y1="55.6673" x2="58.9859" y2="70.1257" gradientUnits="userSpaceOnUse">
<stop stop-color="#09446D"/>
<stop offset="0.2" stop-color="#0A4E7E"/>
<stop offset="0.5349" stop-color="#0D5D98"/>
<stop offset="0.8135" stop-color="#0D66AB"/>
<stop offset="1" stop-color="#086BB5"/>
</linearGradient>
<linearGradient id="paint5_linear_3327_2567" x1="119.692" y1="27.3075" x2="168.422" y2="76.6348" gradientUnits="userSpaceOnUse">
<stop stop-color="#09446D"/>
<stop offset="0.2" stop-color="#0A4E7E"/>
<stop offset="0.5349" stop-color="#0D5D98"/>
<stop offset="0.8135" stop-color="#0D66AB"/>
<stop offset="1" stop-color="#086BB5"/>
</linearGradient>
<linearGradient id="paint6_linear_3327_2567" x1="136.196" y1="40.5247" x2="153.51" y2="40.5247" gradientUnits="userSpaceOnUse">
<stop stop-color="#D2D3D3"/>
<stop offset="0.5" stop-color="white"/>
<stop offset="1" stop-color="#D2D3D3"/>
</linearGradient>
<clipPath id="clip0_3327_2567">
<rect width="281" height="120" fill="white"/>
</clipPath>
<clipPath id="clip1_3327_2567">
<rect width="155" height="50" fill="white" transform="translate(15 27)"/>
</clipPath>
</defs>
</svg>
